<?xml version="1.0" encoding="utf-8"?>
<!-- Generator: Adobe Illustrator 27.9.0, SVG Export Plug-In . SVG Version: 6.00 Build 0)  -->
<svg version="1.1" id="Layer_1" xmlns="http://www.w3.org/2000/svg" xmlns:xlink="http://www.w3.org/1999/xlink" x="0px" y="0px"
	 viewBox="0 0 16 16" style="enable-background:new 0 0 16 16;" xml:space="preserve">
<style type="text/css">
	.st0{fill:#808080;}
</style>
<path class="st0" d="M8,1.5c3.6,0,6.5,2.9,6.5,6.5s-2.9,6.5-6.5,6.5S1.5,11.6,1.5,8S4.4,1.5,8,1.5z M8,16c4.4,0,8-3.6,8-8
	s-3.6-8-8-8S0,3.6,0,8S3.6,16,8,16z M7.3,10.8c0,0.4,0.3,0.8,0.7,0.8s0.8-0.3,0.8-0.8v-2h2c0.4,0,0.8-0.3,0.8-0.8s-0.3-0.8-0.8-0.8
	h-2v-2c0-0.4-0.3-0.8-0.8-0.8c-0.4,0-0.7,0.3-0.7,0.8v2h-2C4.8,7.2,4.5,7.6,4.5,8c0,0.4,0.3,0.8,0.8,0.8h2V10.8z"/>
</svg>
