<?xml version="1.0" encoding="UTF-8"?>
<svg id="Layer_1" xmlns="http://www.w3.org/2000/svg" version="1.1" viewBox="0 0 22.5 30">
  <!-- Generator: Adobe Illustrator 29.0.0, SVG Export Plug-In . SVG Version: 2.1.0 Build 186)  -->
  <defs>
    <style>
      .st0 {
        fill: #fff;
      }
    </style>
  </defs>
  <path class="st0" d="M3.8,0C1.7,0,0,1.7,0,3.8v22.5c0,2.1,1.7,3.8,3.8,3.8h15c2.1,0,3.8-1.7,3.8-3.8V9.4h-7.5c-1,0-1.9-.8-1.9-1.9V0H3.8ZM15,0v7.5h7.5L15,0ZM7.5,15c0-2.1,1.7-3.8,3.8-3.8s3.8,1.7,3.8,3.8-1.7,3.8-3.8,3.8-3.8-1.7-3.8-3.8ZM4.7,25.3c0-2.6,2.1-4.7,4.7-4.7h3.8c2.6,0,4.7,2.1,4.7,4.7s-.4.9-.9.9H5.6c-.5,0-.9-.4-.9-.9Z"/>
</svg>