<?xml version="1.0" encoding="UTF-8"?>
<svg id="Layer_1" xmlns="http://www.w3.org/2000/svg" version="1.1" viewBox="0 0 30 30">
  <!-- Generator: Adobe Illustrator 29.0.0, SVG Export Plug-In . SVG Version: 2.1.0 Build 186)  -->
  <defs>
    <style>
      .st0 {
        fill: #fff;
      }
    </style>
  </defs>
  <path class="st0" d="M0,3.8C0,1.7,1.7,0,3.8,0h22.5c2.1,0,3.8,1.7,3.8,3.8v16.9c0,2.1-1.7,3.8-3.8,3.8h-8.1l-7.2,5.4c-.3.2-.7.2-1,0s-.5-.5-.5-.8v-4.7H3.8c-2.1,0-3.8-1.7-3.8-3.8V3.8ZM7,11.3c-.8,0-1.4.6-1.4,1.4s.6,1.4,1.4,1.4h8.4c.8,0,1.4-.6,1.4-1.4s-.6-1.4-1.4-1.4H7ZM20.2,11.3c-.8,0-1.4.6-1.4,1.4s.6,1.4,1.4,1.4h2.8c.8,0,1.4-.6,1.4-1.4s-.6-1.4-1.4-1.4h-2.8ZM7,15.9c-.8,0-1.4.6-1.4,1.4s.6,1.4,1.4,1.4h2.8c.8,0,1.4-.6,1.4-1.4s-.6-1.4-1.4-1.4h-2.8ZM14.5,15.9c-.8,0-1.4.6-1.4,1.4s.6,1.4,1.4,1.4h8.4c.8,0,1.4-.6,1.4-1.4s-.6-1.4-1.4-1.4h-8.4Z"/>
</svg>