<?xml version="1.0" encoding="UTF-8"?>
<svg id="Layer_1" xmlns="http://www.w3.org/2000/svg" version="1.1" viewBox="0 0 34.3 30">
  <!-- Generator: Adobe Illustrator 29.0.0, SVG Export Plug-In . SVG Version: 2.1.0 Build 186)  -->
  <defs>
    <style>
      .st0 {
        fill: #fff;
      }
    </style>
  </defs>
  <path class="st0" d="M0,4.3C0,1.9,1.9,0,4.3,0h25.7c2.4,0,4.3,1.9,4.3,4.3v21.4c0,2.4-1.9,4.3-4.3,4.3H4.3C1.9,30,0,28.1,0,25.7V4.3ZM21.7,11.4c-.3-.4-.8-.7-1.3-.7s-1,.3-1.3.7l-5.8,8.5-1.8-2.2c-.3-.4-.8-.6-1.3-.6s-1,.2-1.3.6l-4.3,5.4c-.4.5-.5,1.1-.2,1.7s.8.9,1.4.9h22.5c.6,0,1.1-.3,1.4-.9s.2-1.2,0-1.7l-8-11.8h0ZM7.5,10.7c1.8,0,3.2-1.4,3.2-3.2s-1.4-3.2-3.2-3.2-3.2,1.4-3.2,3.2,1.4,3.2,3.2,3.2Z"/>
</svg>