<?xml version="1.0" encoding="UTF-8"?>
<svg id="Layer_1" xmlns="http://www.w3.org/2000/svg" version="1.1" viewBox="0 0 30 30">
  <!-- Generator: Adobe Illustrator 29.0.0, SVG Export Plug-In . SVG Version: 2.1.0 Build 186)  -->
  <defs>
    <style>
      .st0 {
        fill: #fff;
      }
    </style>
  </defs>
  <path class="st0" d="M15,4.3c2.6,0,4.9.9,6.8,2.4l-2.2,2.2c-.3.3-.4.8-.2,1.2s.6.7,1,.7h7.5c.6,0,1.1-.5,1.1-1.1V2.1c0-.4-.3-.8-.7-1s-.9,0-1.2.2l-2.3,2.3c-2.6-2.3-6.1-3.7-9.8-3.7s-1.4,0-2.1.2v4.3c.7-.1,1.4-.2,2.1-.2ZM6.7,8.2l2.2,2.2c.3.3.8.4,1.2.2s.7-.6.7-1V2.1c0-.6-.5-1.1-1.1-1.1H2.1c-.4,0-.8.3-1,.7s0,.9.2,1.2l2.3,2.3C1.4,7.8,0,11.2,0,15s0,1.4.2,2.1h4.3c-.1-.7-.2-1.4-.2-2.1,0-2.6.9-4.9,2.4-6.8ZM29.8,12.9h-4.3c.1.7.2,1.4.2,2.1,0,2.6-.9,4.9-2.4,6.8l-2.2-2.2c-.3-.3-.8-.4-1.2-.2s-.7.6-.7,1v7.5c0,.6.5,1.1,1.1,1.1h7.5c.4,0,.8-.3,1-.7s0-.9-.2-1.2l-2.3-2.3c2.3-2.6,3.7-6.1,3.7-9.8s0-1.4-.2-2.1ZM15,25.7c-2.6,0-4.9-.9-6.8-2.4l2.2-2.2c.3-.3.4-.8.2-1.2s-.6-.7-1-.7H2.1c-.6,0-1.1.5-1.1,1.1v7.5c0,.4.3.8.7,1s.9,0,1.2-.2l2.3-2.3c2.6,2.3,6.1,3.7,9.8,3.7s1.4,0,2.1-.2v-4.3c-.7.1-1.4.2-2.1.2Z"/>
</svg>