<?xml version="1.0" encoding="UTF-8"?>
<svg id="Layer_1" xmlns="http://www.w3.org/2000/svg" version="1.1" viewBox="0 0 30 30">
  <!-- Generator: Adobe Illustrator 29.0.0, SVG Export Plug-In . SVG Version: 2.1.0 Build 186)  -->
  <defs>
    <style>
      .st0 {
        fill: #fff;
      }
    </style>
  </defs>
  <path class="st0" d="M0,15C0,6.7,6.7,0,15,0s15,6.7,15,15-6.7,15-15,15S0,23.3,0,15ZM16.9,5.6c0-1-.8-1.9-1.9-1.9s-1.9.8-1.9,1.9.8,1.9,1.9,1.9,1.9-.8,1.9-1.9ZM15,24.4c2.1,0,3.8-1.7,3.8-3.8s0-.4,0-.6l6.9-4.3c.7-.4.9-1.3.5-1.9s-1.3-.9-1.9-.5l-6.9,4.3c-.6-.5-1.4-.7-2.2-.7-2.1,0-3.7,1.7-3.7,3.8s1.7,3.8,3.7,3.8ZM10.3,8.4c0-1-.8-1.9-1.9-1.9s-1.9.8-1.9,1.9.8,1.9,1.9,1.9,1.9-.8,1.9-1.9ZM5.6,16.9c1,0,1.9-.8,1.9-1.9s-.8-1.9-1.9-1.9-1.9.8-1.9,1.9.8,1.9,1.9,1.9ZM23.4,8.4c0-1-.8-1.9-1.9-1.9s-1.9.8-1.9,1.9.8,1.9,1.9,1.9,1.9-.8,1.9-1.9Z"/>
</svg>