<?xml version="1.0" encoding="UTF-8"?>
<svg id="Layer_1" xmlns="http://www.w3.org/2000/svg" version="1.1" viewBox="0 0 30 30">
  <!-- Generator: Adobe Illustrator 29.0.0, SVG Export Plug-In . SVG Version: 2.1.0 Build 186)  -->
  <defs>
    <style>
      .st0 {
        fill: #fff;
      }
    </style>
  </defs>
  <path class="st0" d="M10.7,3.2c0-1.8,1.4-3.2,3.2-3.2h2.1c1.8,0,3.2,1.4,3.2,3.2v23.6c0,1.8-1.4,3.2-3.2,3.2h-2.1c-1.8,0-3.2-1.4-3.2-3.2V3.2ZM0,16.1c0-1.8,1.4-3.2,3.2-3.2h2.1c1.8,0,3.2,1.4,3.2,3.2v10.7c0,1.8-1.4,3.2-3.2,3.2h-2.1c-1.8,0-3.2-1.4-3.2-3.2v-10.7ZM24.6,4.3h2.1c1.8,0,3.2,1.4,3.2,3.2v19.3c0,1.8-1.4,3.2-3.2,3.2h-2.1c-1.8,0-3.2-1.4-3.2-3.2V7.5c0-1.8,1.4-3.2,3.2-3.2Z"/>
</svg>