<?xml version="1.0" encoding="UTF-8"?>
<svg id="Layer_1" xmlns="http://www.w3.org/2000/svg" version="1.1" viewBox="0 0 37.5 30">
  <!-- Generator: Adobe Illustrator 29.0.0, SVG Export Plug-In . SVG Version: 2.1.0 Build 186)  -->
  <defs>
    <style>
      .st0 {
        fill: #fff;
      }
    </style>
  </defs>
  <path class="st0" d="M5.8,0C2.7,0,.2,2.5.2,5.6v18.8c0,3.1,2.5,5.6,5.6,5.6h26.2c3.1,0,5.6-2.5,5.6-5.6V5.6c0-3.1-2.5-5.6-5.6-5.6H5.8ZM3.9,5.6c0-1,.8-1.9,1.9-1.9h26.2c1,0,1.9.8,1.9,1.9v18.8c0,1-.8,1.9-1.9,1.9H5.8c-1,0-1.9-.8-1.9-1.9V5.6ZM13.3,10.3c0-1.6-1.3-2.8-2.8-2.8s-2.8,1.3-2.8,2.8,1.3,2.8,2.8,2.8,2.8-1.3,2.8-2.8ZM5.8,18.1c0,.9.7,1.6,1.6,1.6h3.3c.5-2,1.9-3.6,3.8-4.3-.4-.2-.9-.4-1.5-.4h-4.1c-1.7,0-3.1,1.4-3.1,3.1ZM27.2,19.7h3.3c.9,0,1.6-.7,1.6-1.6,0-1.7-1.4-3.1-3.1-3.1h-4.1c-.5,0-1,.1-1.5.4,1.9.7,3.4,2.3,3.8,4.3ZM22,16.9c-.2,0-.5,0-.7,0h-4.7c-.2,0-.5,0-.7,0-1.5.3-2.8,1.3-3.3,2.8-.2.4-.2.9-.2,1.4,0,.8.6,1.4,1.4,1.4h10.3c.8,0,1.4-.6,1.4-1.4s0-1-.2-1.4c-.5-1.4-1.8-2.5-3.3-2.8ZM30.2,10.3c0-1.6-1.3-2.8-2.8-2.8s-2.8,1.3-2.8,2.8,1.3,2.8,2.8,2.8,2.8-1.3,2.8-2.8ZM18.9,15c2.1,0,3.8-1.7,3.8-3.8s-1.7-3.8-3.8-3.8-3.8,1.7-3.8,3.8,1.7,3.8,3.8,3.8Z"/>
</svg>