<?xml version="1.0" encoding="UTF-8"?>
<svg id="Layer_1" xmlns="http://www.w3.org/2000/svg" version="1.1" viewBox="0 0 37.5 30">
  <!-- Generator: Adobe Illustrator 29.0.0, SVG Export Plug-In . SVG Version: 2.1.0 Build 186)  -->
  <defs>
    <style>
      .st0 {
        fill: #fff;
      }
    </style>
  </defs>
  <path class="st0" d="M13.1,15c4.1,0,7.5-3.4,7.5-7.5S17.3,0,13.1,0s-7.5,3.4-7.5,7.5,3.4,7.5,7.5,7.5ZM10.4,17.8c-5.8,0-10.4,4.7-10.4,10.4s.8,1.7,1.7,1.7h17.2c-.2-.5-.2-1.1,0-1.6l.9-3.5c.2-.7.5-1.3,1-1.7l2.4-2.4c-1.9-1.8-4.4-2.9-7.3-2.9h-5.3ZM36,13.8c-.9-.9-2.4-.9-3.3,0l-1.7,1.7,4.2,4.2,1.7-1.7c.9-.9.9-2.4,0-3.3l-.8-.8h0ZM22,24.4c-.2.2-.4.5-.5.9l-.9,3.5c0,.3,0,.7.2.9s.6.3.9.2l3.5-.9c.3,0,.6-.3.9-.5l7.6-7.6-4.2-4.2-7.6,7.6Z"/>
</svg>