<?xml version="1.0" encoding="utf-8"?>
<!-- Generator: Adobe Illustrator 27.9.0, SVG Export Plug-In . SVG Version: 6.00 Build 0)  -->
<svg version="1.1" id="Layer_1" xmlns="http://www.w3.org/2000/svg" xmlns:xlink="http://www.w3.org/1999/xlink" x="0px" y="0px"
	 viewBox="0 0 16 16" style="enable-background:new 0 0 16 16;" xml:space="preserve">
<style type="text/css">
	.st0{fill:#297DE2;}
</style>
<path class="st0" d="M9.5,0.7c0,0.4,0.3,0.8,0.8,0.8h3.2l-7,7c-0.3,0.3-0.3,0.8,0,1.1c0.3,0.3,0.8,0.3,1.1,0l7-7v3.2
	c0,0.4,0.3,0.8,0.8,0.8c0.4,0,0.8-0.3,0.8-0.8v-5c0-0.4-0.3-0.8-0.8-0.8h-5C9.8,0,9.5,0.3,9.5,0.7z M2.2,1C1,1-0.1,2-0.1,3.2v10.5
	c0,1.2,1,2.3,2.3,2.3h10.5c1.2,0,2.3-1,2.3-2.3v-4C15,9.3,14.6,9,14.2,9s-0.8,0.3-0.8,0.8v4c0,0.4-0.3,0.8-0.8,0.8H2.2
	c-0.4,0-0.8-0.3-0.8-0.8V3.2c0-0.4,0.3-0.8,0.8-0.8h4C6.6,2.5,7,2.2,7,1.7S6.6,1,6.2,1H2.2z"/>
</svg>
