<?xml version="1.0" encoding="utf-8"?>
<!-- Generator: Adobe Illustrator 27.9.0, SVG Export Plug-In . SVG Version: 6.00 Build 0)  -->
<svg version="1.1" id="Layer_1" xmlns="http://www.w3.org/2000/svg" xmlns:xlink="http://www.w3.org/1999/xlink" x="0px" y="0px"
	 viewBox="0 0 16 16" style="enable-background:new 0 0 16 16;" xml:space="preserve">
<style type="text/css">
	.st0{fill:#FFFFFF;}
	.st1{fill:#297DE2;}
</style>
<g>
	<circle class="st0" cx="8" cy="8" r="8"/>
	<path class="st1" d="M8,1c3.9,0,7,3.1,7,7s-3.1,7-7,7s-7-3.1-7-7S4.1,1,8,1z M8,16c4.4,0,8-3.6,8-8s-3.6-8-8-8S0,3.6,0,8
		S3.6,16,8,16z M6.5,11C6.2,11,6,11.2,6,11.5S6.2,12,6.5,12h3c0.3,0,0.5-0.2,0.5-0.5S9.8,11,9.5,11h-1V7.5C8.5,7.2,8.3,7,8,7H6.7
		C6.5,7,6.2,7.2,6.2,7.5S6.5,8,6.7,8h0.8v3H6.5z M8,5.7c0.4,0,0.8-0.3,0.8-0.8S8.4,4.2,8,4.2C7.6,4.2,7.2,4.6,7.2,5S7.6,5.7,8,5.7z"
		/>
</g>
</svg>
