<?xml version="1.0" encoding="utf-8"?>
<!-- Generator: Adobe Illustrator 27.9.0, SVG Export Plug-In . SVG Version: 6.00 Build 0)  -->
<svg version="1.1" id="Layer_1" xmlns="http://www.w3.org/2000/svg" xmlns:xlink="http://www.w3.org/1999/xlink" x="0px" y="0px"
	 viewBox="0 0 16 16" style="enable-background:new 0 0 16 16;" xml:space="preserve">
<style type="text/css">
	.st0{fill:#FFFFFF;}
</style>
<path class="st0" d="M12.3,1.3c0.3-0.3,0.8-0.3,1.1,0l1.3,1.3c0.3,0.3,0.3,0.8,0,1.1L13,5.4L10.6,3L12.3,1.3z M9.9,3.7l2.4,2.4
	l-6.8,6.8v-0.4C5.5,12.2,5.3,12,5,12H4v-1c0-0.3-0.2-0.5-0.5-0.5H3.1L9.9,3.7z M2.1,11.9c0-0.1,0.1-0.2,0.1-0.4H3v1
	C3,12.8,3.2,13,3.5,13h1v0.8c-0.1,0.1-0.2,0.1-0.4,0.1l-2.9,0.8L2.1,11.9L2.1,11.9z M14.1,0.6c-0.7-0.7-1.8-0.7-2.5,0l-9.7,9.7
	c-0.4,0.4-0.6,0.8-0.8,1.3L0,15.3c-0.1,0.2,0,0.4,0.1,0.5C0.3,16,0.5,16,0.7,15.9l3.8-1.1c0.5-0.1,0.9-0.4,1.3-0.8l9.7-9.7
	c0.7-0.7,0.7-1.8,0-2.5L14.1,0.6z M10.3,6.4c0.2-0.2,0.2-0.5,0-0.7c-0.2-0.2-0.5-0.2-0.7,0l-4,4c-0.2,0.2-0.2,0.5,0,0.7
	c0.2,0.2,0.5,0.2,0.7,0L10.3,6.4L10.3,6.4z"/>
</svg>
